<?xml version="1.0"?>
<svg xmlns="http://www.w3.org/2000/svg" xmlns:xlink="http://www.w3.org/1999/xlink" xmlns:svgjs="http://svgjs.com/svgjs" version="1.1" width="512" height="512" x="0" y="0" viewBox="0 0 496.427 496.427" style="enable-background:new 0 0 512 512" xml:space="preserve" class=""><g><g xmlns="http://www.w3.org/2000/svg"><path d="m71.407 243.455c.852-44.06-72.043-43.465-71.402-.019.167 44.191 73.072 45.359 71.402.019zm-18.298.298c-4.319 19.146-28.662 6.232-23.172-9.763 6.491-13.071 27.357-4.791 23.172 9.763z" fill="#2c2c2c" data-original="#000000" style=""/><path d="m187.844 48.912c8.802 50.715 76.512 30.447 37.838 9.975-10.011-7.71-13.612-29.95 1.686-33.441 8.795-1.972 18.839 1.774 23.093 10.015 1.589 2.773 2.313 6.618 3.479 9.647 2.964 9.468 18.002 5.392 15.658-4.352-7.384-52.24-87.269-45.697-81.754 8.156z" fill="#2c2c2c" data-original="#000000" style=""/><path d="m81.556 72.873.652-.332c-40.949 17.983-25.67 82.069 19.822 77.43 19.501-3.771 13.916-33.43-5.62-29.848-17.35 3.945-19.56-23.353-5.81-29.496 13.961-8.093 28.139 3.583 22.222 18.925 1.088 16.156 25.261 12.972 22.584-2.936-.028-26.282-30.137-46.467-53.85-33.743z" fill="#2c2c2c" data-original="#000000" style=""/><path d="m375.342 143.404c14.165-2.474 9.984-24.636-4.107-21.777-6.523 1.229-12.688-.41-16.76-4.693-12.946-14.293-2.365-42.653 17.808-41.975 9.287-1.272 20.043 5.233 22.66 14.186 1.28 3.803-.239 6.776-.672 10.349-.655 8.349 5.581 15.648 13.93 16.303 19.978.903 18.963-25.102 12.259-37.627-9.213-18.668-30.397-29.478-50.747-25.868l.815-.092c-55.754 6.614-53.125 92.359 4.814 91.194z" fill="#2c2c2c" data-original="#000000" style=""/><path d="m496.402 238.501c-3.177-69.888-108.195-72.365-113.296-2.176-1.902 31.772 25.405 63.186 58.114 59.88 8.288-.526 7.983-13.459-.397-13.486-22.899.195-40.461-23.113-37.638-44.87 2.339-28.701 42.859-38.364 58.748-15.325 3.583 5.026 4.818 11.016 4.461 17.315.732 19.867 31.027 18.527 30.008-1.338z" fill="#2c2c2c" data-original="#000000" style=""/><path d="m347.037 350.061c-23.256 10.648-38.251 37.788-33.696 63.196 11.224 62.479 94.038 50.069 64.983 27.822-21.831-3.83-39.465-24.241-36.031-46.834 1.683-9.67 6.24-19.081 14.951-24.366 16.908-10.394 42.612-7.41 54.845 8.867 4.802 6.26 6.527 14.205 5.843 22.007.71 13.962 24.085 14.536 15.39-17.032-9.222-35.797-55.074-49.053-86.285-33.66z" fill="#2c2c2c" data-original="#000000" style=""/><path d="m88.305 337.627c-23.664 4.094-34.697 34.08-27.862 55.041 17.373 40.079 71.685 22.666 70.511-18.655-.932-21.166-21.479-39.583-42.649-36.386zm10.547 55.584c-9.989 6.894-26.034-1.39-24.197-14.025.584-6.01 4.181-14.901 11.024-15.145 6.893 1.677 14.197 5.448 17.962 11.634 2.408 5.887.448 14.17-4.789 17.536z" fill="#2c2c2c" data-original="#000000" style=""/><path d="m190.481 483.77c13.887 19.509 44.526-1.29 34.302-21.835-12.722-28.828-52.882-1.747-34.302 21.835z" fill="#2c2c2c" data-original="#000000" style=""/></g></g></svg>
